<svg width="45" height="46" viewBox="0 0 45 46" fill="none" xmlns="http://www.w3.org/2000/svg">
<path fill-rule="evenodd" clip-rule="evenodd" d="M8.63871 3.55235C8.63871 5.23805 10.0052 6.60455 11.6912 6.60455H34.2722L0.880712 40.3157C-0.299788 41.5076 -0.292297 43.4334 0.895703 44.6171C2.0852 45.8008 4.0052 45.7942 5.1857 44.6022L38.9537 10.5106V33.7411C38.9537 35.4107 40.3067 36.7643 41.9777 36.7643C43.6472 36.7643 45.0002 35.4107 45.0002 33.7411V3.68705C45.0002 2.37305 44.1617 1.25495 42.9917 0.838101C42.5717 0.621951 42.0977 0.5 41.5937 0.5H11.6912C10.0052 0.5 8.63871 1.8665 8.63871 3.55235Z" fill="black"/>
</svg>
