<svg width="64" height="64" viewBox="0 0 64 64" fill="none" xmlns="http://www.w3.org/2000/svg">
<rect width="64" height="64" rx="16" fill="white"/>
<path fill-rule="evenodd" clip-rule="evenodd" d="M17.5664 33.1592V40.6738H22.3349C23.3122 40.6738 24.11 40.5192 24.7285 40.21C25.347 39.8883 25.8047 39.4554 26.1016 38.9111C26.3984 38.3669 26.5469 37.7422 26.5469 37.0371C26.5469 36.2454 26.4108 35.5589 26.1387 34.9775C25.8789 34.3962 25.4583 33.9508 24.8769 33.6416C24.2956 33.32 23.5286 33.1592 22.5762 33.1592H17.5664ZM27.6457 31.0883C27.9003 30.9865 28.1401 30.8727 28.3652 30.7471C29.4414 30.1533 30.2269 29.3864 30.7217 28.4463C31.2288 27.5062 31.4824 26.4795 31.4824 25.3662C31.4824 24.1045 31.2536 23.016 30.7959 22.1006C30.3382 21.1729 29.6764 20.4059 28.8105 19.7998C27.9446 19.1937 26.887 18.7422 25.6377 18.4453C24.4007 18.1484 22.9967 18 21.4258 18H12V45.0156H14.1152H17.5664H22.3349C24.4254 45.0156 26.1943 44.7188 27.6416 44.125C29.1012 43.5312 30.2083 42.6468 30.9629 41.4717C31.7174 40.2842 32.0947 38.8245 32.0947 37.0928C32.0947 36.0042 31.8597 34.9837 31.3896 34.0312C30.932 33.0788 30.196 32.3057 29.1816 31.7119C28.7339 31.4411 28.2219 31.2332 27.6457 31.0883ZM21.4258 29.3369C22.4525 29.3369 23.2936 29.207 23.9492 28.9473C24.6048 28.6751 25.0934 28.2855 25.415 27.7783C25.749 27.2588 25.916 26.6279 25.916 25.8857C25.916 25.0446 25.7552 24.3643 25.4336 23.8447C25.1243 23.3252 24.6357 22.9479 23.9678 22.7129C23.3122 22.4779 22.4648 22.3604 21.4258 22.3604H17.5664V29.3369H21.4258ZM39.0824 44.6445C40.3194 45.1393 41.7172 45.3867 43.2758 45.3867C44.5746 45.3867 45.7312 45.2135 46.7455 44.8672C47.7598 44.5085 48.6257 44.0508 49.3432 43.4941C50.073 42.9375 50.6482 42.3561 51.0687 41.75L48.4711 38.9297C47.865 39.6966 47.1413 40.2718 46.3002 40.6553C45.4714 41.0264 44.5746 41.2119 43.6098 41.2119C42.8305 41.2119 42.1316 41.0758 41.5131 40.8037C40.907 40.5316 40.3874 40.1481 39.9545 39.6533C39.5339 39.1585 39.2061 38.571 38.9711 37.8906C38.8404 37.4914 38.7481 37.0708 38.6941 36.6289H51.5141V34.4023C51.5141 32.9303 51.3223 31.5944 50.9389 30.3945C50.5554 29.1823 49.9864 28.1432 49.2318 27.2773C48.4896 26.4115 47.5681 25.7435 46.4672 25.2734C45.3663 24.8034 44.1045 24.5684 42.682 24.5684C41.2224 24.5684 39.9112 24.8219 38.7484 25.3291C37.5857 25.8239 36.5961 26.5352 35.7797 27.4629C34.9756 28.3906 34.3572 29.4854 33.9242 30.7471C33.4913 32.0088 33.2748 33.4004 33.2748 34.9219V35.6641C33.2748 37 33.5036 38.2617 33.9613 39.4492C34.419 40.6243 35.0746 41.6572 35.9281 42.5479C36.794 43.4385 37.8454 44.1374 39.0824 44.6445ZM38.7591 33.0664C38.7876 32.8635 38.8212 32.6656 38.8598 32.4727C39.0206 31.7181 39.2556 31.0625 39.5648 30.5059C39.8864 29.9492 40.3008 29.5163 40.808 29.207C41.3152 28.8978 41.9213 28.7432 42.6264 28.7432C43.4551 28.7432 44.1355 28.9163 44.6674 29.2627C45.1993 29.609 45.5951 30.0791 45.8549 30.6729C46.127 31.2542 46.2631 31.916 46.2631 32.6582V33.0664H38.7591ZM48.5283 20.03H37.5283V23.03H48.5283V20.03Z" fill="black"/>
</svg>
