<svg width="420" height="263" viewBox="0 0 420 263" fill="none" xmlns="http://www.w3.org/2000/svg">
<rect width="420" height="263" fill="#514A71"/>
<rect width="420" height="38" fill="#4E5FBC"/>
<circle cx="24" cy="19" r="10" fill="white"/>
<rect x="77" y="50" width="266" height="213" fill="white"/>
<rect x="176" y="62" width="68" height="10" fill="#5B5B5B"/>
<rect x="89" y="95" width="70" height="41" rx="6" fill="#778DFF"/>
<rect x="94" y="140" width="59" height="5" fill="#868686"/>
<rect x="175" y="95" width="70" height="41" rx="6" fill="#778DFF"/>
<rect x="180" y="140" width="59" height="5" fill="#868686"/>
<rect x="261" y="95" width="70" height="41" rx="6" fill="#778DFF"/>
<rect x="266" y="140" width="59" height="5" fill="#868686"/>
<rect x="89" y="164" width="70" height="41" rx="6" fill="#778DFF"/>
<rect x="94" y="209" width="59" height="5" fill="#868686"/>
<rect x="175" y="164" width="70" height="41" rx="6" fill="#778DFF"/>
<rect x="180" y="209" width="59" height="5" fill="#868686"/>
<rect x="261" y="164" width="70" height="41" rx="6" fill="#778DFF"/>
<rect x="266" y="209" width="59" height="5" fill="#868686"/>
<path fill-rule="evenodd" clip-rule="evenodd" d="M95 233C91.6863 233 89 235.686 89 239V263H159V239C159 235.686 156.314 233 153 233H95Z" fill="#778DFF"/>
<path fill-rule="evenodd" clip-rule="evenodd" d="M267 233C263.686 233 261 235.686 261 239V263H331V239C331 235.686 328.314 233 325 233H267Z" fill="#778DFF"/>
<path fill-rule="evenodd" clip-rule="evenodd" d="M181 233C177.686 233 175 235.686 175 239V263H245V239C245 235.686 242.314 233 239 233H181Z" fill="#778DFF"/>
<path d="M0 38H69V192C69 195.314 66.3137 198 63 198H0V38Z" fill="#D9D9D9"/>
</svg>
