<svg width="599" height="269" viewBox="0 0 599 269" fill="none" xmlns="http://www.w3.org/2000/svg">
<rect x="595.492" y="194.523" width="3.50703" height="70.1406" fill="white"/>
<rect x="493.789" y="264.665" width="105.211" height="3.50703" fill="white"/>
<rect x="105.211" y="3.50684" width="105.211" height="3.50703" transform="rotate(180 105.211 3.50684)" fill="white"/>
<rect x="3.50781" y="73.6489" width="3.50703" height="70.1406" transform="rotate(180 3.50781 73.6489)" fill="white"/>
<path fill-rule="evenodd" clip-rule="evenodd" d="M76.1127 23.4865C88.4719 23.4865 99.8063 27.809 108.643 35.0031C110.764 36.7299 114.112 35.8989 114.894 33.278C115.289 31.9548 114.893 30.515 113.832 29.6312C103.613 21.1183 90.3911 15.9849 75.9507 15.9849C43.5592 15.9849 17.3008 41.8144 17.3008 73.6767C17.3008 105.539 43.5592 131.368 75.9507 131.368C90.4563 131.368 103.732 126.189 113.97 117.607C114.995 116.747 115.378 115.352 114.995 114.071C114.234 111.521 110.974 110.718 108.922 112.413C100.046 119.744 88.6026 124.159 76.1127 124.159C47.8922 124.159 25.0149 101.622 25.0149 73.8226C25.0149 46.0227 47.8922 23.4865 76.1127 23.4865Z" fill="white"/>
<path fill-rule="evenodd" clip-rule="evenodd" d="M218.138 15.666C216.072 15.666 214.397 17.3408 214.397 19.4068V68.7385L133.501 68.7385V19.407C133.501 17.341 131.826 15.6662 129.76 15.6662C127.694 15.6662 126.02 17.341 126.02 19.407V127.657C126.02 129.723 127.694 131.398 129.76 131.398C131.826 131.398 133.501 129.723 133.501 127.657V76.2202L214.397 76.2202V127.657C214.397 129.723 216.072 131.398 218.138 131.398C220.204 131.398 221.879 129.723 221.879 127.657V19.4068C221.879 17.3408 220.204 15.666 218.138 15.666Z" fill="white"/>
<rect width="5.84505" height="76.2734" rx="2.92252" transform="matrix(0.957757 -0.287579 0.610782 0.791799 498.289 19.9194)" fill="white"/>
<rect width="5.84505" height="76.2734" rx="2.92252" transform="matrix(-0.957757 -0.287579 -0.610782 0.791799 594.664 19.8008)" fill="white"/>
<rect x="543.18" y="74.2251" width="5.84505" height="57.2815" rx="2.92252" fill="white"/>
<rect x="241.516" y="141.333" width="5.84505" height="111.757" rx="2.92252" fill="white"/>
<rect x="288.744" y="141.333" width="5.84505" height="93.0532" rx="2.92253" transform="rotate(90 288.744 141.333)" fill="white"/>
<rect x="371.277" y="247.01" width="6.07886" height="74.1152" rx="3.03943" transform="rotate(90 371.277 247.01)" fill="white"/>
<rect x="370.811" y="194.171" width="6.07886" height="69.9068" rx="3.03943" transform="rotate(90 370.811 194.171)" fill="white"/>
<rect x="370.578" y="141.333" width="6.07886" height="72.9462" rx="3.03943" transform="rotate(90 370.578 141.333)" fill="white"/>
<rect x="297.162" y="141.333" width="5.84505" height="111.757" rx="2.92252" fill="white"/>
<rect x="492.678" y="125.611" width="6.07886" height="74.1152" rx="3.03943" transform="rotate(90 492.678 125.611)" fill="white"/>
<rect x="492.211" y="72.772" width="6.07886" height="69.9068" rx="3.03943" transform="rotate(90 492.211 72.772)" fill="white"/>
<rect x="491.977" y="19.9331" width="6.07886" height="72.9462" rx="3.03943" transform="rotate(90 491.977 19.9331)" fill="white"/>
<rect x="418.562" y="19.9331" width="5.84505" height="111.757" rx="2.92252" fill="white"/>
<rect x="473.828" y="142.243" width="5.84505" height="112.225" rx="2.92252" fill="white"/>
<rect width="5.84505" height="89.7392" rx="2.92252" transform="matrix(0.936843 -0.349751 0.503296 0.864114 472.922 143.377)" fill="white"/>
<rect width="5.84505" height="88.9336" rx="2.92252" transform="matrix(-0.936843 -0.349751 -0.503296 0.864114 565.914 144.287)" fill="white"/>
<rect x="559.166" y="143.645" width="5.84505" height="110.822" rx="2.92252" fill="white"/>
<path fill-rule="evenodd" clip-rule="evenodd" d="M329.777 128.9C329.809 130.422 331.053 131.646 332.582 131.646C334.132 131.646 335.388 130.39 335.388 128.84V91.647H371.357L393.637 130.209C394.465 131.642 396.298 132.133 397.732 131.306C399.166 130.479 399.657 128.646 398.829 127.213L378.118 91.3679C396.749 89.0952 411.18 73.2208 411.18 53.9758C411.18 33.1706 394.314 16.3047 373.509 16.3047L329.777 16.3047V128.9ZM375.06 84.2751H335.551V23.7939L375.06 23.7939C391.761 23.7939 405.3 37.3331 405.3 54.0345C405.3 70.7359 391.761 84.2751 375.06 84.2751Z" fill="white"/>
<path fill-rule="evenodd" clip-rule="evenodd" d="M239.18 128.688C239.205 130.281 240.504 131.564 242.102 131.564C243.716 131.564 245.024 130.255 245.024 128.641V91.6475H283.046C303.851 91.6475 320.717 74.7815 320.717 53.9763C320.717 33.1711 303.851 16.3052 283.046 16.3052L239.207 16.3052V84.0472C239.191 84.1645 239.182 84.284 239.18 84.4053V128.688ZM284.595 84.275H245.087V23.7938L284.595 23.7938C301.297 23.7938 314.836 37.333 314.836 54.0344C314.836 70.7358 301.297 84.275 284.595 84.275Z" fill="white"/>
<path fill-rule="evenodd" clip-rule="evenodd" d="M424.054 143.319C424.225 142.894 424.271 142.428 424.187 141.977C423.744 139.6 420.472 139.275 419.571 141.519L375.92 250.182C375.408 251.456 376.06 252.901 377.354 253.359C378.575 253.792 379.92 253.185 380.403 251.983L424.054 143.319Z" fill="white"/>
<path fill-rule="evenodd" clip-rule="evenodd" d="M419.553 143.434C419.377 142.998 419.331 142.521 419.42 142.06C419.879 139.664 423.18 139.344 424.091 141.608L467.784 250.211C468.304 251.502 467.643 252.965 466.332 253.429C465.096 253.867 463.735 253.253 463.246 252.037L419.553 143.434Z" fill="white"/>
<path fill-rule="evenodd" clip-rule="evenodd" d="M398.341 214.201C395.563 214.201 393.755 211.278 394.996 208.792C395.629 207.524 396.924 206.723 398.341 206.723H446.339C447.756 206.723 449.051 207.524 449.684 208.792C450.925 211.278 449.117 214.201 446.339 214.201H398.341Z" fill="white"/>
</svg>
