<svg width="64" height="64" viewBox="0 0 64 64" fill="none" xmlns="http://www.w3.org/2000/svg">
<rect width="64" height="64" rx="16" fill="white"/>
<path fill-rule="evenodd" clip-rule="evenodd" d="M52 32C52 43.0457 43.0457 52 32 52C20.9543 52 12 43.0457 12 32C12 20.9543 20.9543 12 32 12C43.0457 12 52 20.9543 52 32ZM36.9777 48.2596C35.4034 48.741 33.7319 49 32 49C28.2537 49 24.7904 47.7882 21.9808 45.7352C26.2439 40.2673 30.0486 37.1046 34.7012 35.5994C35.8597 39.303 36.5121 43.2929 36.9777 48.2596ZM33.6556 32.6724C28.3082 34.3747 24.1449 37.813 19.4171 43.4313C16.6981 40.4402 15.0311 36.4757 15.0004 32.1224C22.5557 32.3809 27.8688 31.6152 32.3212 29.7203C32.8149 30.7062 33.2575 31.6855 33.6556 32.6724ZM30.6236 26.6326C26.8378 28.2421 22.1586 28.9468 15.2987 28.8104C16.2607 23.7426 19.4723 19.4712 23.8554 17.0744C26.6864 20.6562 28.8913 23.7314 30.6236 26.6326ZM35.3666 28.1776C35.9587 29.4075 36.4972 30.6257 36.9964 31.8599C40.3798 31.2679 44.269 31.2201 48.9961 31.6323C48.9051 27.3421 47.2247 23.443 44.5201 20.5C41.3675 23.7676 38.5233 26.3111 35.3666 28.1776ZM41.5829 17.9564C38.8511 20.9299 36.4608 23.2656 33.7311 24.9974C32.1613 22.1228 30.2549 19.0676 27.8469 15.5109C29.176 15.1772 30.5673 15 32 15C35.5546 15 38.8545 16.091 41.5829 17.9564ZM41.3161 46.2224C40.2675 41.8149 39.2851 38.1806 38.1063 34.8093C41.1546 34.3517 44.6116 34.4285 48.7531 34.903C47.9397 39.6304 45.1741 43.6901 41.3161 46.2224Z" fill="black"/>
</svg>
