<svg width="767" height="96" viewBox="0 0 767 96" fill="none" xmlns="http://www.w3.org/2000/svg">
<rect width="767" height="96" rx="16" fill="white"/>
<path d="M31.9617 61.5444C32.9451 61.5444 33.8171 61.3589 34.5779 60.9878C35.3386 60.5981 35.9324 60.0601 36.3591 59.3735C36.8044 58.6685 37.0364 57.8428 37.0549 56.8965H44.5974C44.5789 59.0117 44.0129 60.895 42.8997 62.5464C41.7864 64.1792 40.2927 65.4688 38.4187 66.415C36.5447 67.3428 34.448 67.8066 32.1287 67.8066C29.7908 67.8066 27.7498 67.417 26.0056 66.6377C24.28 65.8584 22.842 64.7822 21.6917 63.4092C20.5413 62.0176 19.6785 60.4033 19.1033 58.5664C18.5281 56.7109 18.2405 54.7256 18.2405 52.6104V51.8032C18.2405 49.6694 18.5281 47.6841 19.1033 45.8472C19.6785 43.9917 20.5413 42.3774 21.6917 41.0044C22.842 39.6128 24.28 38.5273 26.0056 37.748C27.7312 36.9688 29.7537 36.5791 32.073 36.5791C34.5408 36.5791 36.7024 37.0522 38.5579 37.9985C40.4319 38.9448 41.8977 40.2993 42.9553 42.062C44.0315 43.8062 44.5789 45.875 44.5974 48.2686H37.0549C37.0364 47.2666 36.823 46.3574 36.4148 45.541C36.0251 44.7246 35.45 44.0752 34.6892 43.5928C33.947 43.0918 33.0286 42.8413 31.9338 42.8413C30.7649 42.8413 29.8093 43.0918 29.0671 43.5928C28.325 44.0752 27.7498 44.7432 27.3416 45.5967C26.9333 46.4316 26.6458 47.3872 26.4788 48.4634C26.3303 49.521 26.2561 50.6343 26.2561 51.8032V52.6104C26.2561 53.7793 26.3303 54.9019 26.4788 55.978C26.6272 57.0542 26.9055 58.0098 27.3137 58.8447C27.7405 59.6797 28.325 60.3384 29.0671 60.8208C29.8093 61.3032 30.7742 61.5444 31.9617 61.5444ZM54.2162 24.5V67.25H46.2005V24.5H54.2162ZM53.075 51.1353H50.8763C50.8949 49.0386 51.1732 47.1089 51.7113 45.3462C52.2494 43.5649 53.0194 42.0249 54.0213 40.7261C55.0233 39.4087 56.2201 38.3882 57.6117 37.6646C59.0218 36.9409 60.5804 36.5791 62.2875 36.5791C63.7718 36.5791 65.117 36.7925 66.3231 37.2192C67.5477 37.6274 68.596 38.2954 69.4681 39.2231C70.3587 40.1323 71.0453 41.3291 71.5277 42.8135C72.0101 44.2979 72.2513 46.0977 72.2513 48.2129V67.25H64.18V48.1572C64.18 46.8213 63.9852 45.7729 63.5956 45.0122C63.2245 44.2329 62.6771 43.6855 61.9535 43.3701C61.2484 43.0361 60.3763 42.8691 59.3373 42.8691C58.1869 42.8691 57.2035 43.0825 56.3871 43.5093C55.5892 43.936 54.9491 44.5298 54.4667 45.2905C53.9842 46.0327 53.6317 46.9048 53.409 47.9067C53.1864 48.9087 53.075 49.9849 53.075 51.1353ZM83.5122 42.9248V78.8281H75.4965V37.1357H82.9277L83.5122 42.9248ZM102.577 51.8589V52.4434C102.577 54.6328 102.317 56.6646 101.798 58.5386C101.297 60.4126 100.555 62.0454 99.5712 63.437C98.5878 64.8101 97.3632 65.8862 95.8974 66.6655C94.4501 67.4263 92.7802 67.8066 90.8876 67.8066C89.0507 67.8066 87.455 67.4355 86.1005 66.6934C84.746 65.9512 83.6049 64.9121 82.6772 63.5762C81.768 62.2217 81.0351 60.6538 80.4785 58.8726C79.9218 57.0913 79.4951 55.1802 79.1982 53.1392V51.6084C79.4951 49.4189 79.9218 47.415 80.4785 45.5967C81.0351 43.7598 81.768 42.1733 82.6772 40.8374C83.6049 39.4829 84.7368 38.4346 86.0727 37.6924C87.4272 36.9502 89.0136 36.5791 90.832 36.5791C92.7431 36.5791 94.4223 36.9409 95.8696 37.6646C97.3354 38.3882 98.56 39.4272 99.5434 40.7817C100.545 42.1362 101.297 43.7505 101.798 45.6245C102.317 47.4985 102.577 49.5767 102.577 51.8589ZM94.5336 52.4434V51.8589C94.5336 50.5786 94.4223 49.4004 94.1997 48.3242C93.9956 47.2295 93.6616 46.2739 93.1977 45.4575C92.7524 44.6411 92.1586 44.0103 91.4165 43.5649C90.6928 43.1011 89.8115 42.8691 88.7724 42.8691C87.6777 42.8691 86.7407 43.0454 85.9614 43.3979C85.2006 43.7505 84.5791 44.2607 84.0966 44.9287C83.6142 45.5967 83.2524 46.3945 83.0112 47.3223C82.77 48.25 82.6215 49.2983 82.5659 50.4673V54.3359C82.6586 55.709 82.9184 56.9429 83.3452 58.0376C83.7719 59.1138 84.4306 59.9673 85.3212 60.5981C86.2119 61.229 87.3808 61.5444 88.8281 61.5444C89.8857 61.5444 90.7763 61.3125 91.5 60.8486C92.2236 60.3662 92.8081 59.7075 93.2534 58.8726C93.7172 58.0376 94.0419 57.0728 94.2275 55.978C94.4316 54.8833 94.5336 53.7051 94.5336 52.4434ZM112.725 43.7041V67.25H104.709V37.1357H112.252L112.725 43.7041ZM121.798 36.9409L121.659 44.3721C121.269 44.3164 120.796 44.27 120.239 44.2329C119.701 44.1772 119.21 44.1494 118.764 44.1494C117.632 44.1494 116.649 44.2979 115.814 44.5947C114.998 44.873 114.311 45.2905 113.754 45.8472C113.216 46.4038 112.808 47.0811 112.53 47.8789C112.27 48.6768 112.122 49.5859 112.085 50.6064L110.47 50.1055C110.47 48.1572 110.665 46.3667 111.055 44.7339C111.444 43.0825 112.01 41.6445 112.752 40.4199C113.513 39.1953 114.441 38.249 115.536 37.5811C116.63 36.9131 117.883 36.5791 119.293 36.5791C119.738 36.5791 120.193 36.6162 120.657 36.6904C121.121 36.7461 121.501 36.8296 121.798 36.9409ZM136.037 67.8066C133.699 67.8066 131.602 67.4355 129.747 66.6934C127.891 65.9326 126.314 64.8843 125.015 63.5483C123.735 62.2124 122.752 60.6631 122.065 58.9004C121.379 57.1191 121.035 55.2266 121.035 53.2227V52.1094C121.035 49.8271 121.36 47.7397 122.009 45.8472C122.659 43.9546 123.587 42.3125 124.793 40.9209C126.017 39.5293 127.502 38.4624 129.246 37.7202C130.99 36.9595 132.957 36.5791 135.146 36.5791C137.28 36.5791 139.173 36.9316 140.824 37.6367C142.475 38.3418 143.858 39.3438 144.971 40.6426C146.103 41.9414 146.956 43.5 147.531 45.3184C148.107 47.1182 148.394 49.1221 148.394 51.3301V54.6699H124.459V49.3262H140.518V48.7139C140.518 47.6006 140.314 46.6079 139.905 45.7358C139.516 44.8452 138.922 44.1401 138.124 43.6206C137.326 43.1011 136.306 42.8413 135.063 42.8413C134.005 42.8413 133.096 43.0732 132.335 43.5371C131.574 44.001 130.953 44.6504 130.47 45.4854C130.006 46.3203 129.654 47.3037 129.413 48.4355C129.19 49.5488 129.079 50.7734 129.079 52.1094V53.2227C129.079 54.4287 129.246 55.542 129.58 56.5625C129.932 57.583 130.424 58.4644 131.055 59.2065C131.704 59.9487 132.484 60.5239 133.393 60.9321C134.32 61.3403 135.369 61.5444 136.538 61.5444C137.985 61.5444 139.33 61.2661 140.573 60.7095C141.835 60.1343 142.921 59.2715 143.83 58.1211L147.726 62.3516C147.095 63.2607 146.233 64.1328 145.138 64.9678C144.062 65.8027 142.763 66.4893 141.241 67.0273C139.72 67.5469 137.985 67.8066 136.037 67.8066ZM158.653 63.8545L166.641 37.1357H175.241L163.134 71.7866C162.874 72.5474 162.522 73.3638 162.076 74.2358C161.65 75.1079 161.065 75.9336 160.323 76.7129C159.599 77.5107 158.681 78.1602 157.568 78.6611C156.473 79.1621 155.128 79.4126 153.532 79.4126C152.771 79.4126 152.15 79.3662 151.667 79.2734C151.185 79.1807 150.61 79.0508 149.942 78.8838V73.0112C150.146 73.0112 150.359 73.0112 150.582 73.0112C150.804 73.0298 151.018 73.0391 151.222 73.0391C152.28 73.0391 153.142 72.9185 153.81 72.6772C154.478 72.436 155.016 72.0649 155.425 71.564C155.833 71.0815 156.157 70.4507 156.399 69.6714L158.653 63.8545ZM155.313 37.1357L161.854 58.9561L162.995 67.4448L157.54 68.0293L146.713 37.1357H155.313ZM171.862 63.3813C171.862 62.1938 172.27 61.2012 173.087 60.4033C173.922 59.6055 175.026 59.2065 176.399 59.2065C177.772 59.2065 178.867 59.6055 179.683 60.4033C180.518 61.2012 180.935 62.1938 180.935 63.3813C180.935 64.5688 180.518 65.5615 179.683 66.3594C178.867 67.1572 177.772 67.5562 176.399 67.5562C175.026 67.5562 173.922 67.1572 173.087 66.3594C172.27 65.5615 171.862 64.5688 171.862 63.3813ZM199.906 37.1357V42.8135H182.372V37.1357H199.906ZM186.713 29.7046H194.729V58.1768C194.729 59.0488 194.84 59.7168 195.063 60.1807C195.304 60.6445 195.657 60.9692 196.121 61.1548C196.584 61.3218 197.169 61.4053 197.874 61.4053C198.375 61.4053 198.82 61.3867 199.21 61.3496C199.618 61.2939 199.961 61.2383 200.24 61.1826L200.268 67.083C199.581 67.3057 198.839 67.4819 198.041 67.6118C197.243 67.7417 196.362 67.8066 195.397 67.8066C193.634 67.8066 192.094 67.519 190.777 66.9438C189.478 66.3501 188.476 65.4038 187.771 64.105C187.066 62.8062 186.713 61.0991 186.713 58.9839V29.7046ZM215.481 67.8066C213.143 67.8066 211.046 67.4355 209.19 66.6934C207.335 65.9326 205.758 64.8843 204.459 63.5483C203.179 62.2124 202.195 60.6631 201.509 58.9004C200.822 57.1191 200.479 55.2266 200.479 53.2227V52.1094C200.479 49.8271 200.804 47.7397 201.453 45.8472C202.103 43.9546 203.03 42.3125 204.236 40.9209C205.461 39.5293 206.945 38.4624 208.689 37.7202C210.434 36.9595 212.4 36.5791 214.59 36.5791C216.724 36.5791 218.616 36.9316 220.268 37.6367C221.919 38.3418 223.301 39.3438 224.415 40.6426C225.546 41.9414 226.4 43.5 226.975 45.3184C227.55 47.1182 227.838 49.1221 227.838 51.3301V54.6699H203.902V49.3262H219.961V48.7139C219.961 47.6006 219.757 46.6079 219.349 45.7358C218.96 44.8452 218.366 44.1401 217.568 43.6206C216.77 43.1011 215.75 42.8413 214.506 42.8413C213.449 42.8413 212.54 43.0732 211.779 43.5371C211.018 44.001 210.397 44.6504 209.914 45.4854C209.45 46.3203 209.098 47.3037 208.856 48.4355C208.634 49.5488 208.523 50.7734 208.523 52.1094V53.2227C208.523 54.4287 208.689 55.542 209.023 56.5625C209.376 57.583 209.868 58.4644 210.499 59.2065C211.148 59.9487 211.927 60.5239 212.836 60.9321C213.764 61.3403 214.813 61.5444 215.981 61.5444C217.429 61.5444 218.774 61.2661 220.017 60.7095C221.279 60.1343 222.364 59.2715 223.273 58.1211L227.17 62.3516C226.539 63.2607 225.676 64.1328 224.582 64.9678C223.505 65.8027 222.207 66.4893 220.685 67.0273C219.164 67.5469 217.429 67.8066 215.481 67.8066ZM245.806 60.459V47.0439C245.806 46.0791 245.649 45.2534 245.333 44.5669C245.018 43.8618 244.526 43.3145 243.858 42.9248C243.209 42.5352 242.364 42.3403 241.325 42.3403C240.435 42.3403 239.665 42.498 239.015 42.8135C238.366 43.1104 237.865 43.5464 237.512 44.1216C237.16 44.6782 236.984 45.3369 236.984 46.0977H228.968C228.968 44.8174 229.265 43.6021 229.859 42.4517C230.452 41.3013 231.315 40.29 232.447 39.418C233.579 38.5273 234.924 37.8315 236.483 37.3306C238.06 36.8296 239.822 36.5791 241.771 36.5791C244.109 36.5791 246.187 36.9688 248.005 37.748C249.823 38.5273 251.252 39.6963 252.291 41.2549C253.349 42.8135 253.878 44.7617 253.878 47.0996V59.9858C253.878 61.6372 253.98 62.9917 254.184 64.0493C254.388 65.0884 254.685 65.9976 255.074 66.7769V67.25H246.975C246.586 66.4336 246.289 65.4131 246.085 64.1885C245.899 62.9453 245.806 61.7021 245.806 60.459ZM246.864 48.9087L246.92 53.4453H242.439C241.381 53.4453 240.463 53.5659 239.683 53.8071C238.904 54.0483 238.264 54.3916 237.763 54.8369C237.262 55.2637 236.891 55.7646 236.65 56.3398C236.427 56.915 236.316 57.5459 236.316 58.2324C236.316 58.9189 236.473 59.5405 236.789 60.0972C237.104 60.6353 237.559 61.062 238.152 61.3774C238.746 61.6743 239.442 61.8228 240.24 61.8228C241.446 61.8228 242.494 61.5815 243.385 61.0991C244.276 60.6167 244.962 60.0229 245.444 59.3179C245.945 58.6128 246.205 57.9448 246.224 57.314L248.339 60.7095C248.042 61.4702 247.634 62.2588 247.114 63.0752C246.613 63.8916 245.973 64.6616 245.194 65.3853C244.415 66.0903 243.478 66.6748 242.383 67.1387C241.288 67.584 239.989 67.8066 238.486 67.8066C236.575 67.8066 234.84 67.4263 233.282 66.6655C231.742 65.8862 230.517 64.8193 229.608 63.4648C228.717 62.0918 228.272 60.5332 228.272 58.7891C228.272 57.2119 228.569 55.811 229.163 54.5864C229.757 53.3618 230.629 52.332 231.779 51.4971C232.948 50.6436 234.404 50.0034 236.149 49.5767C237.893 49.1313 239.915 48.9087 242.216 48.9087H246.864ZM265.222 43.3701V67.25H257.178V37.1357H264.721L265.222 43.3701ZM264.109 51.1353H261.882C261.882 49.0386 262.133 47.1089 262.634 45.3462C263.153 43.5649 263.905 42.0249 264.888 40.7261C265.89 39.4087 267.124 38.3882 268.59 37.6646C270.055 36.9409 271.753 36.5791 273.683 36.5791C275.019 36.5791 276.243 36.7832 277.357 37.1914C278.47 37.5811 279.426 38.2026 280.223 39.0562C281.04 39.8911 281.671 40.9858 282.116 42.3403C282.561 43.6763 282.784 45.2812 282.784 47.1553V67.25H274.768V48.0459C274.768 46.6729 274.583 45.6152 274.212 44.873C273.841 44.1309 273.312 43.6113 272.625 43.3145C271.957 43.0176 271.15 42.8691 270.204 42.8691C269.165 42.8691 268.256 43.0825 267.476 43.5093C266.716 43.936 266.085 44.5298 265.584 45.2905C265.083 46.0327 264.712 46.9048 264.47 47.9067C264.229 48.9087 264.109 49.9849 264.109 51.1353ZM282.032 50.2168L279.166 50.5786C279.166 48.6118 279.407 46.7842 279.889 45.0957C280.39 43.4072 281.123 41.9229 282.088 40.6426C283.072 39.3623 284.287 38.3696 285.734 37.6646C287.181 36.9409 288.851 36.5791 290.744 36.5791C292.191 36.5791 293.509 36.7925 294.696 37.2192C295.884 37.6274 296.895 38.2861 297.73 39.1953C298.583 40.0859 299.233 41.2549 299.678 42.7021C300.142 44.1494 300.374 45.9214 300.374 48.0181V67.25H292.33V48.0181C292.33 46.6265 292.145 45.5688 291.774 44.8452C291.421 44.103 290.902 43.5928 290.215 43.3145C289.547 43.0176 288.749 42.8691 287.822 42.8691C286.857 42.8691 286.012 43.064 285.289 43.4536C284.565 43.8247 283.962 44.3442 283.48 45.0122C282.997 45.6802 282.635 46.4595 282.394 47.3501C282.153 48.2222 282.032 49.1777 282.032 50.2168ZM349.291 52.3599C349.217 54.2524 348.939 56.1172 348.456 57.9541C347.974 59.791 347.241 61.4517 346.258 62.936C345.293 64.4204 344.059 65.6079 342.556 66.4985C341.053 67.3892 339.235 67.8345 337.101 67.8345C335.895 67.8345 334.809 67.6211 333.845 67.1943C332.88 66.7676 332.063 66.1646 331.395 65.3853C330.727 64.5874 330.236 63.6318 329.92 62.5186C329.605 61.4053 329.493 60.1528 329.586 58.7612L331.006 42.73H336.572L335.181 58.7612C335.069 59.7261 335.078 60.5146 335.208 61.127C335.357 61.7393 335.579 62.2124 335.876 62.5464C336.192 62.8804 336.544 63.1216 336.934 63.27C337.342 63.3999 337.741 63.4648 338.131 63.4648C339.021 63.4648 339.838 63.1865 340.58 62.6299C341.322 62.0732 341.962 61.3032 342.5 60.3198C343.038 59.3364 343.465 58.186 343.781 56.8687C344.096 55.5327 344.272 54.0947 344.309 52.5547C344.439 50.0869 344.319 47.8047 343.948 45.708C343.595 43.6113 342.983 41.7373 342.111 40.0859C341.257 38.416 340.144 37.0059 338.771 35.8555C337.398 34.6865 335.765 33.7959 333.872 33.1836C331.98 32.5527 329.818 32.2373 327.388 32.2373C325.105 32.2373 322.999 32.5898 321.07 33.2949C319.159 34 317.442 35.0112 315.921 36.3286C314.418 37.646 313.119 39.2231 312.024 41.0601C310.948 42.8784 310.095 44.9102 309.464 47.1553C308.851 49.3818 308.49 51.7754 308.378 54.3359C308.248 57.0264 308.388 59.4756 308.796 61.6836C309.223 63.8916 309.9 65.8306 310.827 67.5005C311.774 69.189 312.952 70.5991 314.362 71.731C315.772 72.8628 317.414 73.7163 319.288 74.2915C321.162 74.8667 323.25 75.1543 325.551 75.1543C327.165 75.1543 328.807 74.9688 330.477 74.5977C332.165 74.2451 333.585 73.7905 334.735 73.2339L335.793 77.3809C334.494 78.2158 332.87 78.8374 330.922 79.2456C328.993 79.6538 327.165 79.8579 325.439 79.8579C322.489 79.8579 319.799 79.4961 317.368 78.7725C314.956 78.0674 312.822 77.0098 310.967 75.5996C309.111 74.208 307.562 72.4824 306.319 70.4229C305.094 68.3633 304.185 65.9883 303.591 63.2979C303.016 60.6074 302.793 57.6201 302.923 54.3359C303.053 51.293 303.526 48.4263 304.343 45.7358C305.159 43.0454 306.272 40.6055 307.682 38.416C309.093 36.2266 310.781 34.3433 312.748 32.7661C314.733 31.1704 316.96 29.9458 319.428 29.0923C321.895 28.2388 324.586 27.812 327.499 27.812C330.393 27.812 333.019 28.1924 335.375 28.9531C337.75 29.7139 339.828 30.8086 341.61 32.2373C343.391 33.6475 344.875 35.3638 346.063 37.3862C347.25 39.3901 348.113 41.6538 348.651 44.1772C349.189 46.7007 349.403 49.4282 349.291 52.3599ZM321.181 55.2822C321.088 56.5068 321.098 57.5923 321.209 58.5386C321.32 59.4849 321.534 60.2827 321.849 60.9321C322.164 61.5815 322.573 62.0732 323.074 62.4072C323.593 62.7227 324.205 62.8804 324.91 62.8804C325.3 62.8804 325.727 62.7876 326.191 62.6021C326.655 62.3979 327.128 62.064 327.61 61.6001C328.093 61.1362 328.547 60.4961 328.974 59.6797C329.419 58.8447 329.79 57.7964 330.087 56.5347L332.453 59.3457C332.026 60.7373 331.497 61.9619 330.867 63.0195C330.236 64.0586 329.512 64.9307 328.696 65.6357C327.898 66.3408 327.026 66.8696 326.079 67.2222C325.133 67.5747 324.113 67.751 323.018 67.751C321.663 67.751 320.457 67.4634 319.4 66.8882C318.342 66.2944 317.461 65.4502 316.756 64.3555C316.051 63.2607 315.54 61.9526 315.225 60.4312C314.928 58.8911 314.872 57.1748 315.058 55.2822C315.262 53.3896 315.633 51.6362 316.171 50.022C316.709 48.4077 317.377 46.9697 318.175 45.708C318.973 44.4277 319.882 43.3423 320.903 42.4517C321.942 41.5425 323.064 40.856 324.27 40.3921C325.476 39.9282 326.738 39.6963 328.056 39.6963C330.189 39.6963 331.868 40.0024 333.093 40.6147C334.318 41.2271 335.477 41.9321 336.572 42.73L333.733 46.543C333.195 46.0605 332.49 45.5967 331.618 45.1514C330.764 44.6875 329.744 44.4556 328.556 44.4556C327.462 44.4556 326.497 44.6875 325.662 45.1514C324.846 45.6152 324.131 46.311 323.519 47.2388C322.925 48.1479 322.433 49.2798 322.044 50.6343C321.654 51.9702 321.367 53.5195 321.181 55.2822ZM371.045 37.1357H378.309V66.248C378.309 68.9941 377.697 71.3228 376.472 73.2339C375.266 75.1636 373.578 76.6201 371.407 77.6035C369.236 78.6055 366.712 79.1064 363.836 79.1064C362.575 79.1064 361.239 78.9395 359.829 78.6055C358.437 78.2715 357.101 77.752 355.821 77.0469C354.559 76.3418 353.501 75.4512 352.648 74.375L356.183 69.6436C357.11 70.7197 358.186 71.5547 359.411 72.1484C360.636 72.7607 361.99 73.0669 363.475 73.0669C364.922 73.0669 366.146 72.7979 367.148 72.2598C368.15 71.7402 368.92 70.9702 369.458 69.9497C369.997 68.9478 370.266 67.7324 370.266 66.3037V44.0938L371.045 37.1357ZM350.783 52.5547V51.9702C350.783 49.6694 351.061 47.582 351.618 45.708C352.193 43.8154 353 42.1919 354.039 40.8374C355.097 39.4829 356.377 38.4346 357.88 37.6924C359.383 36.9502 361.081 36.5791 362.974 36.5791C364.977 36.5791 366.657 36.9502 368.011 37.6924C369.366 38.4346 370.479 39.4922 371.351 40.8652C372.223 42.2197 372.9 43.8247 373.383 45.6802C373.884 47.5171 374.273 49.5303 374.552 51.7197V53C374.273 55.0967 373.856 57.0449 373.299 58.8447C372.743 60.6445 372.01 62.2217 371.101 63.5762C370.191 64.9121 369.06 65.9512 367.705 66.6934C366.369 67.4355 364.773 67.8066 362.918 67.8066C361.062 67.8066 359.383 67.4263 357.88 66.6655C356.396 65.9048 355.125 64.8379 354.067 63.4648C353.01 62.0918 352.193 60.4775 351.618 58.6221C351.061 56.7666 350.783 54.7441 350.783 52.5547ZM358.799 51.9702V52.5547C358.799 53.7979 358.919 54.9575 359.161 56.0337C359.402 57.1099 359.773 58.0654 360.274 58.9004C360.793 59.7168 361.434 60.3569 362.194 60.8208C362.974 61.2661 363.892 61.4888 364.95 61.4888C366.415 61.4888 367.612 61.1826 368.54 60.5703C369.468 59.9395 370.164 59.0767 370.627 57.9819C371.091 56.8872 371.36 55.6255 371.435 54.1968V50.5508C371.397 49.3818 371.24 48.3335 370.961 47.4058C370.683 46.4595 370.293 45.6523 369.792 44.9844C369.291 44.3164 368.642 43.7969 367.844 43.4258C367.046 43.0547 366.1 42.8691 365.005 42.8691C363.948 42.8691 363.029 43.1104 362.25 43.5928C361.489 44.0566 360.849 44.6968 360.33 45.5132C359.829 46.3296 359.448 47.2944 359.188 48.4077C358.929 49.5024 358.799 50.6899 358.799 51.9702ZM389.709 43.3701V67.25H381.666V37.1357H389.208L389.709 43.3701ZM388.596 51.1353H386.369C386.369 49.0386 386.62 47.1089 387.121 45.3462C387.64 43.5649 388.392 42.0249 389.375 40.7261C390.377 39.4087 391.611 38.3882 393.077 37.6646C394.543 36.9409 396.24 36.5791 398.17 36.5791C399.506 36.5791 400.731 36.7832 401.844 37.1914C402.957 37.5811 403.913 38.2026 404.711 39.0562C405.527 39.8911 406.158 40.9858 406.603 42.3403C407.048 43.6763 407.271 45.2812 407.271 47.1553V67.25H399.255V48.0459C399.255 46.6729 399.07 45.6152 398.699 44.873C398.328 44.1309 397.799 43.6113 397.112 43.3145C396.444 43.0176 395.637 42.8691 394.691 42.8691C393.652 42.8691 392.743 43.0825 391.963 43.5093C391.203 43.936 390.572 44.5298 390.071 45.2905C389.57 46.0327 389.199 46.9048 388.958 47.9067C388.716 48.9087 388.596 49.9849 388.596 51.1353ZM406.52 50.2168L403.653 50.5786C403.653 48.6118 403.894 46.7842 404.377 45.0957C404.878 43.4072 405.61 41.9229 406.575 40.6426C407.559 39.3623 408.774 38.3696 410.221 37.6646C411.669 36.9409 413.338 36.5791 415.231 36.5791C416.678 36.5791 417.996 36.7925 419.183 37.2192C420.371 37.6274 421.382 38.2861 422.217 39.1953C423.07 40.0859 423.72 41.2549 424.165 42.7021C424.629 44.1494 424.861 45.9214 424.861 48.0181V67.25H416.817V48.0181C416.817 46.6265 416.632 45.5688 416.261 44.8452C415.908 44.103 415.389 43.5928 414.702 43.3145C414.034 43.0176 413.236 42.8691 412.309 42.8691C411.344 42.8691 410.5 43.064 409.776 43.4536C409.052 43.8247 408.449 44.3442 407.967 45.0122C407.484 45.6802 407.123 46.4595 406.881 47.3501C406.64 48.2222 406.52 49.1777 406.52 50.2168ZM444.471 60.459V47.0439C444.471 46.0791 444.314 45.2534 443.998 44.5669C443.683 43.8618 443.191 43.3145 442.523 42.9248C441.874 42.5352 441.029 42.3403 439.99 42.3403C439.1 42.3403 438.33 42.498 437.68 42.8135C437.031 43.1104 436.53 43.5464 436.177 44.1216C435.825 44.6782 435.649 45.3369 435.649 46.0977H427.633C427.633 44.8174 427.93 43.6021 428.524 42.4517C429.117 41.3013 429.98 40.29 431.112 39.418C432.244 38.5273 433.589 37.8315 435.148 37.3306C436.725 36.8296 438.487 36.5791 440.436 36.5791C442.774 36.5791 444.852 36.9688 446.67 37.748C448.488 38.5273 449.917 39.6963 450.956 41.2549C452.014 42.8135 452.543 44.7617 452.543 47.0996V59.9858C452.543 61.6372 452.645 62.9917 452.849 64.0493C453.053 65.0884 453.35 65.9976 453.739 66.7769V67.25H445.64C445.251 66.4336 444.954 65.4131 444.75 64.1885C444.564 62.9453 444.471 61.7021 444.471 60.459ZM445.529 48.9087L445.585 53.4453H441.104C440.046 53.4453 439.128 53.5659 438.348 53.8071C437.569 54.0483 436.929 54.3916 436.428 54.8369C435.927 55.2637 435.556 55.7646 435.315 56.3398C435.092 56.915 434.981 57.5459 434.981 58.2324C434.981 58.9189 435.138 59.5405 435.454 60.0972C435.769 60.6353 436.224 61.062 436.818 61.3774C437.411 61.6743 438.107 61.8228 438.905 61.8228C440.111 61.8228 441.159 61.5815 442.05 61.0991C442.941 60.6167 443.627 60.0229 444.11 59.3179C444.611 58.6128 444.87 57.9448 444.889 57.314L447.004 60.7095C446.707 61.4702 446.299 62.2588 445.779 63.0752C445.278 63.8916 444.638 64.6616 443.859 65.3853C443.08 66.0903 442.143 66.6748 441.048 67.1387C439.953 67.584 438.654 67.8066 437.152 67.8066C435.24 67.8066 433.506 67.4263 431.947 66.6655C430.407 65.8862 429.182 64.8193 428.273 63.4648C427.382 62.0918 426.937 60.5332 426.937 58.7891C426.937 57.2119 427.234 55.811 427.828 54.5864C428.422 53.3618 429.294 52.332 430.444 51.4971C431.613 50.6436 433.069 50.0034 434.814 49.5767C436.558 49.1313 438.58 48.9087 440.881 48.9087H445.529ZM464.332 37.1357V67.25H456.289V37.1357H464.332ZM455.788 29.2871C455.788 28.1182 456.196 27.1533 457.012 26.3926C457.829 25.6318 458.924 25.2515 460.297 25.2515C461.651 25.2515 462.737 25.6318 463.553 26.3926C464.388 27.1533 464.805 28.1182 464.805 29.2871C464.805 30.4561 464.388 31.4209 463.553 32.1816C462.737 32.9424 461.651 33.3228 460.297 33.3228C458.924 33.3228 457.829 32.9424 457.012 32.1816C456.196 31.4209 455.788 30.4561 455.788 29.2871ZM476.567 24.5V67.25H468.524V24.5H476.567ZM480.731 63.3813C480.731 62.1938 481.139 61.2012 481.956 60.4033C482.79 59.6055 483.894 59.2065 485.268 59.2065C486.641 59.2065 487.735 59.6055 488.552 60.4033C489.387 61.2012 489.804 62.1938 489.804 63.3813C489.804 64.5688 489.387 65.5615 488.552 66.3594C487.735 67.1572 486.641 67.5562 485.268 67.5562C483.894 67.5562 482.79 67.1572 481.956 66.3594C481.139 65.5615 480.731 64.5688 480.731 63.3813ZM506.464 61.5444C507.448 61.5444 508.32 61.3589 509.081 60.9878C509.841 60.5981 510.435 60.0601 510.862 59.3735C511.307 58.6685 511.539 57.8428 511.558 56.8965H519.1C519.082 59.0117 518.516 60.895 517.402 62.5464C516.289 64.1792 514.795 65.4688 512.921 66.415C511.047 67.3428 508.951 67.8066 506.631 67.8066C504.294 67.8066 502.253 67.417 500.508 66.6377C498.783 65.8584 497.345 64.7822 496.194 63.4092C495.044 62.0176 494.181 60.4033 493.606 58.5664C493.031 56.7109 492.743 54.7256 492.743 52.6104V51.8032C492.743 49.6694 493.031 47.6841 493.606 45.8472C494.181 43.9917 495.044 42.3774 496.194 41.0044C497.345 39.6128 498.783 38.5273 500.508 37.748C502.234 36.9688 504.256 36.5791 506.576 36.5791C509.044 36.5791 511.205 37.0522 513.061 37.9985C514.935 38.9448 516.4 40.2993 517.458 42.062C518.534 43.8062 519.082 45.875 519.1 48.2686H511.558C511.539 47.2666 511.326 46.3574 510.918 45.541C510.528 44.7246 509.953 44.0752 509.192 43.5928C508.45 43.0918 507.531 42.8413 506.437 42.8413C505.268 42.8413 504.312 43.0918 503.57 43.5928C502.828 44.0752 502.253 44.7432 501.844 45.5967C501.436 46.4316 501.148 47.3872 500.982 48.4634C500.833 49.521 500.759 50.6343 500.759 51.8032V52.6104C500.759 53.7793 500.833 54.9019 500.982 55.978C501.13 57.0542 501.408 58.0098 501.816 58.8447C502.243 59.6797 502.828 60.3384 503.57 60.8208C504.312 61.3032 505.277 61.5444 506.464 61.5444ZM519.618 52.499V51.9146C519.618 49.7065 519.933 47.6748 520.564 45.8193C521.195 43.9453 522.113 42.3218 523.319 40.9487C524.526 39.5757 526.01 38.5088 527.773 37.748C529.535 36.9688 531.558 36.5791 533.84 36.5791C536.122 36.5791 538.154 36.9688 539.935 37.748C541.716 38.5088 543.21 39.5757 544.416 40.9487C545.641 42.3218 546.569 43.9453 547.199 45.8193C547.83 47.6748 548.146 49.7065 548.146 51.9146V52.499C548.146 54.6885 547.83 56.7202 547.199 58.5942C546.569 60.4497 545.641 62.0732 544.416 63.4648C543.21 64.8379 541.726 65.9048 539.963 66.6655C538.2 67.4263 536.178 67.8066 533.896 67.8066C531.613 67.8066 529.582 67.4263 527.8 66.6655C526.038 65.9048 524.544 64.8379 523.319 63.4648C522.113 62.0732 521.195 60.4497 520.564 58.5942C519.933 56.7202 519.618 54.6885 519.618 52.499ZM527.633 51.9146V52.499C527.633 53.7607 527.745 54.939 527.967 56.0337C528.19 57.1284 528.543 58.0933 529.025 58.9282C529.526 59.7446 530.175 60.3848 530.973 60.8486C531.771 61.3125 532.745 61.5444 533.896 61.5444C535.009 61.5444 535.965 61.3125 536.762 60.8486C537.56 60.3848 538.2 59.7446 538.683 58.9282C539.165 58.0933 539.518 57.1284 539.74 56.0337C539.982 54.939 540.102 53.7607 540.102 52.499V51.9146C540.102 50.6899 539.982 49.5396 539.74 48.4634C539.518 47.3687 539.156 46.4038 538.655 45.5688C538.173 44.7153 537.532 44.0474 536.735 43.5649C535.937 43.0825 534.972 42.8413 533.84 42.8413C532.708 42.8413 531.743 43.0825 530.945 43.5649C530.166 44.0474 529.526 44.7153 529.025 45.5688C528.543 46.4038 528.19 47.3687 527.967 48.4634C527.745 49.5396 527.633 50.6899 527.633 51.9146ZM558.238 43.3701V67.25H550.194V37.1357H557.737L558.238 43.3701ZM557.124 51.1353H554.898C554.898 49.0386 555.148 47.1089 555.649 45.3462C556.169 43.5649 556.92 42.0249 557.904 40.7261C558.906 39.4087 560.139 38.3882 561.605 37.6646C563.071 36.9409 564.769 36.5791 566.698 36.5791C568.034 36.5791 569.259 36.7832 570.372 37.1914C571.486 37.5811 572.441 38.2026 573.239 39.0562C574.055 39.8911 574.686 40.9858 575.132 42.3403C575.577 43.6763 575.8 45.2812 575.8 47.1553V67.25H567.784V48.0459C567.784 46.6729 567.598 45.6152 567.227 44.873C566.856 44.1309 566.327 43.6113 565.641 43.3145C564.973 43.0176 564.166 42.8691 563.219 42.8691C562.18 42.8691 561.271 43.0825 560.492 43.5093C559.731 43.936 559.1 44.5298 558.599 45.2905C558.098 46.0327 557.727 46.9048 557.486 47.9067C557.245 48.9087 557.124 49.9849 557.124 51.1353ZM575.048 50.2168L572.181 50.5786C572.181 48.6118 572.423 46.7842 572.905 45.0957C573.406 43.4072 574.139 41.9229 575.104 40.6426C576.087 39.3623 577.302 38.3696 578.75 37.6646C580.197 36.9409 581.867 36.5791 583.76 36.5791C585.207 36.5791 586.524 36.7925 587.712 37.2192C588.899 37.6274 589.91 38.2861 590.745 39.1953C591.599 40.0859 592.248 41.2549 592.694 42.7021C593.157 44.1494 593.389 45.9214 593.389 48.0181V67.25H585.346V48.0181C585.346 46.6265 585.16 45.5688 584.789 44.8452C584.437 44.103 583.917 43.5928 583.231 43.3145C582.563 43.0176 581.765 42.8691 580.837 42.8691C579.872 42.8691 579.028 43.064 578.304 43.4536C577.581 43.8247 576.978 44.3442 576.495 45.0122C576.013 45.6802 575.651 46.4595 575.41 47.3501C575.169 48.2222 575.048 49.1777 575.048 50.2168Z" fill="black"/>
<a href="mailto:chprey.team@gmail.com">
<rect fill="black" fill-opacity="0" x="0.403564" y="0.351562" width="580.075" height="66.7969"/>
</a>
<path fill-rule="evenodd" clip-rule="evenodd" d="M706.612 29.0772C706.612 30.7341 707.955 32.0772 709.612 32.0772H732.118L698.862 65.655C697.696 66.8322 697.719 68.7511 698.893 69.9201C700.068 71.0892 701.981 71.0995 703.147 69.9223L736.782 35.9628V59.1025C736.782 60.7594 738.134 62.1025 739.791 62.1025C741.448 62.1025 742.801 60.7594 742.801 59.1025V29.1641C742.801 27.9104 742.026 26.8364 740.932 26.3879C740.496 26.141 739.992 26 739.455 26H709.612C707.955 26 706.612 27.3431 706.612 29V29.0772Z" fill="black"/>
</svg>
