<svg width="64" height="64" viewBox="0 0 64 64" fill="none" xmlns="http://www.w3.org/2000/svg">
<rect width="64" height="64" rx="16" fill="white"/>
<rect x="9.5" y="9.5" width="45" height="45" rx="9" fill="black"/>
<path d="M51.1999 8.5332H12.7999C10.4425 8.5332 8.5332 10.4425 8.5332 12.7999V51.1999C8.5332 53.5572 10.4425 55.4665 12.7999 55.4665H51.1999C53.5572 55.4665 55.4665 53.5572 55.4665 51.1999V12.7999C55.4665 10.4425 53.5572 8.5332 51.1999 8.5332ZM23.3684 46.9332H17.0751V26.6836H23.3684V46.9332ZM20.1577 23.7887C18.1289 23.7887 16.4884 22.1439 16.4884 20.1193C16.4884 18.0948 18.1311 16.4521 20.1577 16.4521C22.1801 16.4521 23.8249 18.0969 23.8249 20.1193C23.8249 22.1439 22.1801 23.7887 20.1577 23.7887ZM46.9417 46.9332H40.6527V37.0857C40.6527 34.7369 40.61 31.7161 37.3823 31.7161C34.1076 31.7161 33.6041 34.274 33.6041 36.9151V46.9332H27.3151V26.6836H33.3524V29.4505H33.4377C34.2783 27.8591 36.3305 26.1801 39.3919 26.1801C45.7641 26.1801 46.9417 30.3743 46.9417 35.8271V46.9332Z" fill="white"/>
</svg>
