<svg width="150" height="150" viewBox="0 0 150 150" fill="none" xmlns="http://www.w3.org/2000/svg">
<path fill-rule="evenodd" clip-rule="evenodd" d="M74.75 6C78.0637 6 80.75 8.68629 80.75 12V20.5312H84.4375C88.4059 20.5312 92.3354 21.3129 96.0017 22.8315C99.668 24.3502 102.999 26.576 105.805 29.3821C108.611 32.1882 110.837 35.5195 112.356 39.1858C113.875 42.8521 114.656 46.7816 114.656 50.75C114.656 54.0637 111.97 56.75 108.656 56.75C105.343 56.75 102.656 54.0637 102.656 50.75C102.656 48.3575 102.185 45.9884 101.269 43.778C100.354 41.5676 99.0119 39.5592 97.3201 37.8674C95.6283 36.1756 93.6199 34.8336 91.4095 33.9181C89.1991 33.0025 86.83 32.5312 84.4375 32.5312H74.75H62.6406C57.8087 32.5312 53.1747 34.4507 49.758 37.8674C46.3413 41.2841 44.4219 45.9181 44.4219 50.75C44.4219 55.5819 46.3413 60.2159 49.758 63.6326C53.1747 67.0493 57.8087 68.9688 62.6406 68.9688H89.2812C97.2958 68.9688 104.982 72.1525 110.649 77.8196C116.316 83.4867 119.5 91.173 119.5 99.1875C119.5 107.202 116.316 114.888 110.649 120.555C104.982 126.222 97.2958 129.406 89.2812 129.406H80.75V137.938C80.75 141.251 78.0637 143.938 74.75 143.938C71.4363 143.938 68.75 141.251 68.75 137.938V129.406H60.2188C52.2042 129.406 44.518 126.222 38.8509 120.555C33.1838 114.888 30 107.202 30 99.1875C30 95.8738 32.6863 93.1875 36 93.1875C39.3137 93.1875 42 95.8738 42 99.1875C42 104.019 43.9195 108.653 47.3361 112.07C50.7528 115.487 55.3868 117.406 60.2188 117.406H74.75H89.2812C94.1132 117.406 98.7472 115.487 102.164 112.07C105.581 108.653 107.5 104.019 107.5 99.1875C107.5 94.3556 105.581 89.7216 102.164 86.3049C98.7472 82.8882 94.1132 80.9688 89.2812 80.9688H62.6406C54.6261 80.9688 46.9399 77.785 41.2727 72.1179C35.6056 66.4508 32.4219 58.7645 32.4219 50.75C32.4219 42.7355 35.6056 35.0492 41.2727 29.3821C46.9399 23.715 54.6261 20.5312 62.6406 20.5312H68.75V12C68.75 8.68629 71.4363 6 74.75 6Z" fill="white"/>
</svg>
