<svg width="150" height="150" viewBox="0 0 150 150" fill="none" xmlns="http://www.w3.org/2000/svg">
<path fill-rule="evenodd" clip-rule="evenodd" d="M68.4812 13.0173C70.708 7.6609 78.2918 7.6609 80.5186 13.0173L96.2248 50.7984L136.993 54.0683C142.773 54.532 145.116 61.7485 140.713 65.5228L109.652 92.1427L119.141 131.945C120.487 137.587 114.351 142.048 109.403 139.024L74.4999 117.694L39.597 139.024C34.6487 142.048 28.5129 137.587 29.8583 131.945L39.3479 92.1427L8.28717 65.5228C3.88352 61.7485 6.22713 54.532 12.007 54.0683L52.7748 50.7984L68.4812 13.0173ZM87.197 54.5553C88.6051 57.9425 91.7888 60.2568 95.4439 60.55L128.4 63.1932L103.291 84.7129C100.506 87.0993 99.2899 90.8442 100.141 94.4123L107.812 126.588L79.5969 109.346C76.4679 107.433 72.5319 107.433 69.4029 109.346L41.1878 126.588L48.8591 94.4123C49.7099 90.8442 48.4937 87.0993 45.7091 84.7129L20.5998 63.1932L53.5562 60.55C57.2111 60.2568 60.3949 57.9425 61.8028 54.5553L74.4999 24.0133L87.197 54.5553Z" fill="white"/>
</svg>
