<svg width="420" height="264" viewBox="0 0 420 264" fill="none" xmlns="http://www.w3.org/2000/svg">
<g clip-path="url(#clip0_486_2)">
<path d="M420 59.0298H0V263.133H420V59.0298Z" fill="#514A71"/>
<path d="M375 71.0356H45V263.132H375V71.0356Z" fill="#778DFF"/>
<path d="M420 0H0V59.0297H420V0Z" fill="#4E5FBC"/>
<path d="M47 48.0241C58.0457 48.0241 67 39.0652 67 28.014C67 16.9627 58.0457 8.00391 47 8.00391C35.9543 8.00391 27 16.9627 27 28.014C27 39.0652 35.9543 48.0241 47 48.0241Z" fill="white"/>
<path d="M146 24.0122H96V32.0162H146V24.0122Z" fill="white"/>
<path d="M222 24.0122H172V32.0162H222V24.0122Z" fill="white"/>
<path d="M298 24.0122H248V32.0162H298V24.0122Z" fill="white"/>
<path d="M374 24.0122H324V32.0162H374V24.0122Z" fill="white"/>
<path d="M247 85.043H173V98.0495H247V85.043Z" fill="#D9DADA"/>
<path d="M353 189.095H252C248.686 189.095 246 191.783 246 195.098V233.117C246 236.433 248.686 239.12 252 239.12H353C356.314 239.12 359 236.433 359 233.117V195.098C359 191.783 356.314 189.095 353 189.095Z" fill="#D9DADA"/>
<path d="M159 117.059H66C62.6863 117.059 60 119.747 60 123.062V161.081C60 164.397 62.6863 167.084 66 167.084H159C162.314 167.084 165 164.397 165 161.081V123.062C165 119.747 162.314 117.059 159 117.059Z" fill="#D9DADA"/>
<path d="M359 117.059H175V125.063H359V117.059Z" fill="white"/>
<path d="M359 131.066H175V139.07H359V131.066Z" fill="white"/>
<path d="M359 146.074H175V154.078H359V146.074Z" fill="white"/>
<path d="M359 160.081H175V168.085H359V160.081Z" fill="white"/>
<path d="M235 188.095H61V196.099H235V188.095Z" fill="white"/>
<path d="M235 203.103H61V211.107H235V203.103Z" fill="white"/>
<path d="M235 218.11H61V226.114H235V218.11Z" fill="white"/>
<path d="M235 232.117H61V240.121H235V232.117Z" fill="white"/>
<path d="M359 174.088H61V182.092H359V174.088Z" fill="white"/>
</g>
<defs>
<clipPath id="clip0_486_2">
<rect width="420" height="263.133" fill="white"/>
</clipPath>
</defs>
</svg>
